<?xml version="1.0"?>
<svg xmlns="http://www.w3.org/2000/svg" xmlns:xlink="http://www.w3.org/1999/xlink" version="1.1" id="Capa_1" x="0px" y="0px" viewBox="0 0 512 512" style="enable-background:new 0 0 512 512;" xml:space="preserve" width="512px" height="512px"><g><g>
	<g>
		<path d="M403.353,196.065l61.394,61.394l21.213-21.213l-82.606-82.606V58.787L344.566,0H172.139l-58.787,58.787v90.146    L26.04,236.246l21.213,21.213l66.099-66.099v94.573L26.04,373.246l21.213,21.213l66.099-66.099v154.853L142.139,512h232.426    l28.787-28.787V333.065l61.394,61.394l21.213-21.213l-82.606-82.606V196.065z M158.353,421h-15V314h15V421z M158.353,284h-15V177    h15V284z M328.353,411.158c-21.639,13.661-45.829,20.843-70.412,20.843c-24.522-0.001-48.429-7.153-69.588-20.756V376h0h140    V411.158z M328.353,232h-140v-61.978c21.396-13.442,45.443-20.511,70-20.511s48.604,7.068,70,20.511V232z M373.353,421h-15V314h15    V421z M373.353,284h-15V177h15V284z" data-original="#000000" class="active-path" data-old_color="#000000" fill="#E7302F"/>
	</g>
</g></g> </svg>
