<?xml version="1.0"?>
<svg xmlns="http://www.w3.org/2000/svg" xmlns:xlink="http://www.w3.org/1999/xlink" version="1.1" id="Capa_1" x="0px" y="0px" width="512px" height="512px" viewBox="0 0 197.775 197.775" style="enable-background:new 0 0 197.775 197.775;" xml:space="preserve"><g><g>
	<g>
		<ellipse cx="98.887" cy="16.533" rx="16.754" ry="16.533" data-original="#000000" class="active-path" data-old_color="#000000" fill="#E7302F"/>
		<path d="M169.967,83.896L123.313,37.25c-1.021-1.021-2.559-1.748-4.271-1.748c-1.203,0-40.735,0-40.735,0l-0.001,0.011    c-1.401,0.087-2.78,0.666-3.85,1.737l-46.65,46.646c-2.333,2.333-2.333,6.114-0.001,8.447c1.168,1.166,2.695,1.75,4.225,1.75    c1.528,0,3.068-0.583,4.233-1.75l42.455-42.49v138.961c0,4.949,4.037,8.961,8.985,8.961c4.949,0,9.173-4.012,9.173-8.961V121.09    h4.025v67.725c0,4.949,4.224,8.961,9.173,8.961c4.948,0,8.985-4.012,8.985-8.961V49.853l42.477,42.49    c1.167,1.167,2.688,1.75,4.217,1.75s3.055-0.583,4.222-1.75C172.306,90.01,172.3,86.228,169.967,83.896z" data-original="#000000" class="active-path" data-old_color="#000000" fill="#E7302F"/>
	</g>
</g></g> </svg>
